<?xml version="1.0" encoding="utf-8"?>
<!-- Generator: Adobe Illustrator 26.0.3, SVG Export Plug-In . SVG Version: 6.00 Build 0)  -->
<svg version="1.1" id="Capa_1" xmlns="http://www.w3.org/2000/svg" xmlns:xlink="http://www.w3.org/1999/xlink" x="0px" y="0px"
	 viewBox="0 0 549.16 121.64" style="enable-background:new 0 0 549.16 121.64;" xml:space="preserve">
<style type="text/css">
	.st0{fill:#7CFE81;}
</style>
<g>
	<path class="st0" d="M364.61,26.26c-2.72,0-5.73,1.51-6.64,6.04s-11.17,53.42-12.07,57.35c-0.91,3.92,0.6,6.04,3.02,6.04
		c2.41,0,5.13-0.6,6.34-5.73c1.21-5.13,11.87-54.93,12.58-58.86C368.53,27.16,366.12,26.26,364.61,26.26z"/>
	<path class="st0" d="M111.68,26.26c-2.72,0-5.73,1.51-6.64,6.04S93.87,85.72,92.96,89.64c-0.91,3.92,0.6,6.04,3.02,6.04
		c2.41,0,5.13-0.6,6.34-5.73c1.21-5.13,11.87-54.93,12.58-58.86C115.6,27.16,113.19,26.26,111.68,26.26z"/>
	<path class="st0" d="M155.14,27.77h-0.91c-0.91,4.53-13.28,62.48-14.19,66.4c0,0,1.21,0,3.62,0c1.51,0,5.73,0.91,6.94-4.23
		c1.21-5.13,11.34-53.13,12.07-57.05C163.59,28.07,160.27,27.47,155.14,27.77z"/>
	<path class="st0" d="M245.69,27.77h-0.91c-0.91,4.53-4.53,21.43-5.43,25.35c0,0,1.21,0,3.62,0c1.51,0,4.98,0.45,6.19-4.68
		s2.59-12.08,3.32-16C253.38,27.62,250.82,27.47,245.69,27.77z"/>
	<path class="st0" d="M25.35,0L0,121.64h523.8L549.16,0H25.35z M73.5,85.42c-1.05,4.23-2.27,25.96-25.51,25.96
		s-19.02-15.39-16.9-25.96c0,0,8.15-35.62,11.17-49.8s7.24-25.05,27.16-25.05c16.3,0,17.51,11.17,16,18.71
		c-0.49,2.44-1.8,8.75-3.39,16.3H65.7c1.59-7.49,2.79-13.25,3.01-14.49c0.7-3.92-1.71-4.83-3.22-4.83c-2.72,0-5.73,1.51-6.64,6.04
		c-0.91,4.53-11.17,53.42-12.07,57.35c-0.91,3.92,0.6,6.04,3.02,6.04c2.41,0,5.13-0.6,6.34-5.73c0.34-1.45,1.43-6.45,2.84-12.98
		h16.38C74.43,81.3,73.74,84.44,73.5,85.42z M94.17,111.37c-23.24,0-19.02-15.39-16.9-25.96c0,0,8.15-35.62,11.17-49.8
		s7.24-25.05,27.16-25.05c16.3,0,17.51,11.17,16,18.71s-10.9,51.91-11.92,56.14C118.01,92.36,116.2,111.37,94.17,111.37z
		 M167.18,89.56c-0.05,0.24-0.11,0.49-0.16,0.76c-0.03,0.16-0.07,0.31-0.1,0.47c0,0,0,0,0,0c-0.72,3.23-2.18,6.39-4.14,9.18
		c-0.01,0.01-0.01,0.01-0.02,0.02c-0.16,0.23-0.33,0.46-0.5,0.68c-0.03,0.03-0.05,0.07-0.08,0.1c-0.16,0.21-0.32,0.41-0.48,0.61
		c-0.04,0.05-0.08,0.1-0.13,0.16c-0.15,0.19-0.31,0.37-0.46,0.55c-0.05,0.06-0.11,0.13-0.16,0.19c-0.15,0.17-0.3,0.34-0.45,0.5
		c-0.07,0.07-0.13,0.14-0.2,0.22c-0.15,0.16-0.3,0.31-0.45,0.46c-0.08,0.08-0.15,0.16-0.23,0.23c-0.15,0.14-0.29,0.28-0.44,0.42
		c-0.09,0.08-0.17,0.16-0.26,0.24c-0.14,0.13-0.29,0.26-0.44,0.39c-0.09,0.08-0.19,0.16-0.28,0.25c-0.14,0.12-0.29,0.24-0.43,0.36
		c-0.1,0.08-0.2,0.16-0.31,0.25c-0.14,0.11-0.28,0.22-0.43,0.33c-0.11,0.08-0.22,0.16-0.33,0.24c-0.14,0.1-0.28,0.2-0.42,0.3
		c-0.12,0.08-0.23,0.16-0.35,0.24c-0.14,0.09-0.28,0.18-0.42,0.27c-0.12,0.08-0.24,0.15-0.37,0.23c-0.14,0.08-0.28,0.17-0.42,0.25
		c-0.13,0.07-0.26,0.14-0.38,0.21c-0.14,0.08-0.28,0.15-0.41,0.22c-0.13,0.07-0.27,0.13-0.4,0.2c-0.14,0.07-0.27,0.13-0.41,0.2
		c-0.14,0.06-0.28,0.12-0.42,0.18c-0.14,0.06-0.27,0.12-0.41,0.17c-0.14,0.06-0.29,0.11-0.43,0.17c-0.13,0.05-0.27,0.1-0.4,0.15
		c-0.15,0.05-0.3,0.1-0.45,0.15c-0.13,0.04-0.26,0.09-0.4,0.12c-0.15,0.05-0.31,0.08-0.46,0.13c-0.13,0.03-0.26,0.07-0.39,0.1
		c-0.16,0.04-0.32,0.07-0.48,0.1c-0.12,0.03-0.25,0.05-0.37,0.08c-0.17,0.03-0.34,0.05-0.51,0.08c-0.12,0.02-0.23,0.04-0.35,0.05
		c-0.19,0.02-0.38,0.04-0.57,0.05c-0.1,0.01-0.19,0.02-0.29,0.03c-0.29,0.02-0.58,0.03-0.87,0.03c-4.08,0-9.47,0-14.28,0
		c-6.31,0-11.61,0-11.61,0l20.52-97.49c0,0,5.39,0,11.01,0c4.59,0,9.94,0,14.21,0c1.99,0,3.84,0.32,5.5,0.91
		c0.07,0.03,0.14,0.05,0.21,0.07c0.01,0,0.03,0.01,0.04,0.02c0.48,0.18,0.94,0.38,1.38,0.61c0.14,0.07,0.28,0.15,0.42,0.23
		c0.08,0.05,0.17,0.09,0.25,0.14c0.43,0.25,0.85,0.53,1.24,0.83c0,0,0,0,0.01,0c0.11,0.08,0.22,0.17,0.32,0.26
		c0.09,0.07,0.17,0.14,0.26,0.21c0.06,0.05,0.12,0.11,0.18,0.16c0.12,0.11,0.25,0.22,0.37,0.34c0.51,0.49,0.97,1.03,1.38,1.61
		c0.02,0.03,0.04,0.06,0.06,0.08c0.52,0.74,0.95,1.54,1.31,2.41c0.04,0.09,0.08,0.19,0.12,0.28c0.84,2.18,1.15,4.73,0.82,7.57
		c0,0.02,0,0.03,0,0.05c-0.07,0.64-0.18,1.29-0.32,1.95h0c0,0,0,0,0,0c-0.05,0.24-0.1,0.47-0.14,0.69
		c-2.18,10.67-10.61,50.62-11.61,54.61C167.77,86.24,167.56,87.71,167.18,89.56z M206.45,109.87h-12.14h-8.99h-5.29
		c-6.31,0-11.61,0-11.61,0l20.52-97.49c0,0,5.39,0,11.01,0h5.59h8.62h13.41l-3.32,15.39h-17.61h-3.52h-0.91
		c-0.38,1.88-2.74,13.02-5.43,25.66h18.71l-3.02,15.39H193.5c-2.71,12.66-5.09,23.72-5.46,25.35c0,0,0.44,0,1.32,0h2.31h2.67h15.44
		L206.45,109.87z M269.09,28.11c0,0.02,0,0.03,0,0.05c-0.07,0.64-0.18,1.29-0.32,1.95h0c0,0,0,0,0,0c-0.05,0.24-0.1,0.47-0.14,0.69
		c-0.71,3.5-2.1,10.14-3.68,17.63c-2.35,11.33-8.09,14.96-13.82,16.77l6.17,44.67h-17.64l-2.72-44.67l-9.05,44.67
		c-1.69,0-3.44,0-5.29,0c-6.31,0-11.61,0-11.61,0l20.52-97.49c0,0,5.39,0,11.01,0c4.59,0,8.43,0,12.7,0c1.99,0,3.84,0.32,5.5,0.91
		c0.07,0.03,0.14,0.05,0.21,0.07c0.01,0,0.03,0.01,0.04,0.02c0.48,0.18,0.94,0.38,1.38,0.61c0.14,0.07,0.28,0.15,0.42,0.23
		c0.08,0.05,0.17,0.09,0.25,0.14c0.43,0.25,0.85,0.53,1.24,0.83c0,0,0,0,0.01,0c0.11,0.08,0.22,0.17,0.32,0.26
		c0.09,0.07,0.17,0.14,0.26,0.21c0.06,0.05,0.12,0.11,0.18,0.16c0.12,0.11,0.25,0.22,0.37,0.34c0.51,0.49,0.97,1.03,1.38,1.61
		c0.02,0.03,0.04,0.06,0.06,0.08c0.52,0.74,0.95,1.54,1.31,2.41c0.04,0.09,0.08,0.19,0.12,0.28
		C269.1,22.71,269.42,25.26,269.09,28.11z M303.64,109.87l8.72-41.35h-9.66l-8.72,41.35h-16.3l20.56-97.49h16.3l-8.59,40.75h9.66
		l8.59-40.75h16.3l-20.56,97.49H303.64z M347.1,111.37c-23.24,0-19.02-15.39-16.9-25.96c0,0,8.15-35.62,11.17-49.8
		c3.02-14.19,7.24-25.05,27.16-25.05c16.3,0,17.51,11.17,16,18.71s-10.9,51.91-11.92,56.14C370.95,92.36,369.13,111.37,347.1,111.37
		z M394.79,111.37c-23.24,0-19.02-15.39-16.9-25.96c0,0,12.51-57.06,15.99-73.04h15.95c-3.14,15.05-15.52,74.14-16.25,77.27
		c-0.91,3.92,0.6,6.04,3.02,6.04s5.13-0.6,6.34-5.73c0.93-3.96,13.24-62.03,16.51-77.57h16.32c-3.3,15.78-14.67,69.82-15.47,73.04
		C419.25,89.64,417.43,111.37,394.79,111.37z M441.88,111.37c-23.24,0-19.02-15.39-16.9-25.96l2.11-9.05l16.41,0.06
		c-1.45,6.84-2.56,12.05-2.83,13.22c-0.91,3.92,0.6,6.04,3.02,6.04c2.41,0,5.13-0.6,6.34-5.73c0.33-1.39,2.41-11.17,2.41-11.17
		c0.91-4.53-0.6-6.94-6.71-12.95c-0.39-0.39-0.78-0.78-1.18-1.17c0,0,0,0,0,0c-0.4-0.38-0.8-0.76-1.2-1.14
		c-0.01-0.01-0.01-0.01-0.02-0.02c-0.4-0.37-0.8-0.74-1.21-1.11c-0.01-0.01-0.02-0.02-0.03-0.03c-0.41-0.37-0.82-0.74-1.22-1.09
		c-6.15-5.43-7.43-13.28-5.09-23.91l0,0c0.13-0.61,0.26-1.19,0.37-1.74c3.02-14.19,7.24-25.05,27.16-25.05
		c16.3,0,17.51,11.17,16,18.71c-0.49,2.44-1.8,8.73-3.39,16.27h-16.32c1.58-7.47,2.79-13.23,3.01-14.46
		c0.7-3.92-1.71-4.83-3.22-4.83c-2.72,0-5.73,1.51-6.64,6.04c-0.14,0.71-0.51,2.51-1.04,5.06l0,0c-1.37,6.71,0.74,10.03,4.36,13.65
		c0.51,0.51,1.2,1.1,1.99,1.78v0c0.16,0.14,0.32,0.28,0.49,0.42c0.14,0.12,0.27,0.23,0.41,0.35c0.03,0.03,0.06,0.05,0.1,0.08
		c0.15,0.13,0.3,0.25,0.45,0.39c0.02,0.02,0.04,0.03,0.06,0.05c0.15,0.13,0.29,0.26,0.44,0.39c0.02,0.02,0.04,0.04,0.06,0.05
		c0.15,0.14,0.31,0.28,0.47,0.42c0.03,0.03,0.06,0.05,0.09,0.08c0.16,0.14,0.32,0.29,0.47,0.43c0.03,0.03,0.06,0.05,0.08,0.08
		c0.17,0.15,0.33,0.31,0.5,0.47c0.01,0,0.01,0.01,0.02,0.01c0.16,0.16,0.33,0.31,0.49,0.48c0.03,0.03,0.05,0.05,0.08,0.08
		c0.16,0.16,0.32,0.32,0.48,0.48c0.03,0.03,0.06,0.06,0.1,0.1c0.16,0.17,0.33,0.34,0.49,0.51c0.02,0.02,0.04,0.05,0.06,0.07
		c0.16,0.17,0.32,0.34,0.48,0.52c0.01,0.02,0.03,0.03,0.04,0.05c0.16,0.18,0.32,0.36,0.48,0.55c0.03,0.04,0.06,0.07,0.09,0.11
		c0.16,0.18,0.31,0.37,0.46,0.56c0.03,0.03,0.06,0.07,0.08,0.11c0.16,0.2,0.31,0.39,0.47,0.6c0.01,0.01,0.02,0.02,0.02,0.03
		c0.15,0.2,0.3,0.4,0.44,0.6c0.02,0.03,0.04,0.06,0.07,0.09c0.14,0.2,0.28,0.41,0.42,0.62c0.03,0.04,0.05,0.08,0.08,0.12
		c0.14,0.21,0.27,0.42,0.4,0.64c0.02,0.03,0.04,0.06,0.06,0.1c0.13,0.22,0.26,0.43,0.38,0.65c0.01,0.02,0.02,0.03,0.03,0.05
		c0.13,0.23,0.25,0.46,0.37,0.69c0.02,0.04,0.04,0.08,0.06,0.13c0.11,0.23,0.22,0.46,0.33,0.69c0.02,0.04,0.04,0.09,0.06,0.13
		c0.11,0.24,0.21,0.48,0.31,0.73c0.01,0.02,0.02,0.04,0.02,0.06c0.09,0.24,0.18,0.48,0.27,0.73c0.01,0.03,0.02,0.07,0.04,0.1
		c0.08,0.25,0.16,0.5,0.24,0.76c0.01,0.05,0.03,0.1,0.04,0.15c0.07,0.26,0.14,0.51,0.2,0.77c0.01,0.04,0.02,0.08,0.03,0.12
		c0.06,0.27,0.12,0.54,0.16,0.81c0,0.01,0,0.02,0.01,0.03c0.05,0.28,0.09,0.56,0.12,0.84c0.01,0.05,0.01,0.1,0.02,0.15
		c0.03,0.27,0.06,0.55,0.08,0.83c0,0.05,0.01,0.11,0.01,0.16c0.02,0.29,0.03,0.58,0.03,0.87c0,0.03,0,0.06,0,0.09
		c0,0.29-0.01,0.58-0.02,0.87c0,0.04,0,0.07,0,0.11c-0.02,0.3-0.04,0.6-0.07,0.91c-0.01,0.06-0.01,0.12-0.02,0.18
		c-0.03,0.3-0.08,0.61-0.13,0.92c-0.01,0.05-0.02,0.1-0.03,0.16c-0.06,0.32-0.12,0.65-0.19,0.98l0.11-0.1
		c-1.04,4.85-1.82,8.4-2.07,9.46C465.72,92.36,463.91,111.37,441.88,111.37z M506.36,27.77h-3.52h-0.91
		c-0.38,1.88-2.74,13.02-5.43,25.66h18.71l-3.02,15.39h-18.98c-2.71,12.66-5.09,23.72-5.46,25.35c0,0,0.44,0,1.32,0h2.31h2.67h15.44
		l-3.32,15.7h-12.14h-8.99h-5.29c-6.31,0-11.61,0-11.61,0l20.52-97.49c0,0,5.39,0,11.01,0h5.59h8.62h13.41l-3.32,15.39H506.36z"/>
</g>
</svg>
